<?xml version="1.0" standalone="no"?>
<!DOCTYPE svg PUBLIC "-//W3C//DTD SVG 1.1//EN" "http://www.w3.org/Graphics/SVG/1.1/DTD/svg11.dtd" >
<svg xmlns="http://www.w3.org/2000/svg">
<metadata></metadata>
<defs>
<font id="neuehaasgroteskdispbold" horiz-adv-x="1427" >
<font-face units-per-em="2048" ascent="1638" descent="-410" />
<missing-glyph horiz-adv-x="317" />
<glyph horiz-adv-x="2048" />
<glyph horiz-adv-x="2048" />
<glyph unicode="&#xd;" horiz-adv-x="2048" />
<glyph unicode=" "  horiz-adv-x="317" />
<glyph unicode="&#x09;" horiz-adv-x="317" />
<glyph unicode="&#xa0;" horiz-adv-x="317" />
<glyph unicode="!" horiz-adv-x="540" d="M96 0v344h348v-344h-348zM98 1118v346h344v-346l-86 -639h-172z" />
<glyph unicode="&#x22;" horiz-adv-x="870" d="M84 913v551h289v-551h-289zM498 913v551h288v-551h-288z" />
<glyph unicode="#" horiz-adv-x="1228" d="M49 354l45 258h189l32 205h-190l45 258h188l56 330h213l-56 -330h211l56 330h213l-56 -330h193l-45 -258h-191l-32 -205h188l-43 -258h-188l-58 -354h-213l58 354h-211l-58 -354h-213l58 354h-191zM496 612h211l32 205h-211z" />
<glyph unicode="$" horiz-adv-x="1275" d="M33 453h340q21 -182 202 -209v331q-56 15 -91 24.5t-84 25t-80 29.5t-69 35t-61.5 42.5t-48.5 52t-38.5 64.5t-22 77t-8.5 93q0 128 66 221t178 140.5t259 52.5v124h125v-126q221 -18 347.5 -127.5t136.5 -309.5h-322q-20 144 -162 172v-299q100 -23 173.5 -47.5 t141 -61.5t109 -83t66 -111t24.5 -147q0 -202 -142.5 -317t-371.5 -128v-182h-125v184q-258 17 -398 139.5t-144 340.5zM408 1038q0 -55 37.5 -84t129.5 -55v270q-81 -7 -124 -41.5t-43 -89.5zM700 244q78 11 125 47t47 98q0 60 -40 91.5t-132 58.5v-295z" />
<glyph unicode="%" horiz-adv-x="1777" d="M41 1022q0 186 104.5 299t270.5 113q167 0 271 -113t104 -299q0 -184 -104.5 -297t-270.5 -113q-162 0 -268.5 113.5t-106.5 296.5zM293 1022q0 -231 123 -231t123 231q0 110 -30 174t-93 64t-93 -64t-30 -174zM416 0l755 1405h193l-758 -1405h-190zM987 377 q0 183 106.5 296t268.5 113q169 0 273 -111t104 -298t-105 -299.5t-272 -112.5q-163 0 -269 113t-106 299zM1241 377q0 -234 123 -234t123 234q0 107 -31 171t-92 64q-123 0 -123 -235z" />
<glyph unicode="&#x26;" d="M45 406q0 81 24.5 148.5t70.5 119t101.5 89.5t127.5 71q-57 66 -85 132.5t-28 149.5q0 155 112.5 256t299.5 101q183 0 298 -96t115 -257q0 -65 -20.5 -119.5t-60 -96.5t-84.5 -73.5t-105 -60.5l176 -221q40 92 55 184h289q-21 -216 -160 -418l252 -315h-407l-72 92 q-184 -117 -379 -117q-246 0 -383 120.5t-137 310.5zM391 414q0 -77 53 -123.5t136 -46.5q109 0 198 63l-248 322q-75 -46 -107 -97.5t-32 -117.5zM565 1118q0 -84 103 -176q116 68 116 176q0 48 -30.5 80.5t-77.5 32.5q-50 0 -80.5 -31.5t-30.5 -81.5z" />
<glyph unicode="'" horiz-adv-x="456" d="M84 913v551h289v-551h-289z" />
<glyph unicode="(" horiz-adv-x="698" d="M117 604q0 277 74 521t190 419h283q-218 -422 -218 -940q0 -253 60 -468.5t158 -418.5h-281q-119 177 -192.5 402.5t-73.5 484.5z" />
<glyph unicode=")" horiz-adv-x="698" d="M35 -283q217 445 217 934q0 472 -217 893h282q117 -178 191 -404t74 -489q0 -271 -74.5 -515t-192.5 -419h-280z" />
<glyph unicode="*" horiz-adv-x="903" d="M63 1114l66 170l227 -80v260h193v-260l227 80l66 -170l-240 -80l152 -200l-148 -111l-151 213l-152 -213l-151 111l151 200z" />
<glyph unicode="+" horiz-adv-x="1159" d="M82 541v268h354v377h287v-377h354v-268h-354v-379h-287v379h-354z" />
<glyph unicode="," horiz-adv-x="481" d="M66 0v344h350v-317q0 -179 -97 -281q-96 -103 -249 -113v142q74 20 116.5 79t42.5 146h-163z" />
<glyph unicode="-" horiz-adv-x="686" d="M66 371v286h557v-286h-557z" />
<glyph unicode="." horiz-adv-x="481" d="M66 0v344h350v-344h-350z" />
<glyph unicode="/" horiz-adv-x="894" d="M25 0l546 1464h287l-547 -1464h-286z" />
<glyph unicode="0" horiz-adv-x="1337" d="M49 700q0 333 171.5 533.5t449.5 200.5q283 0 451.5 -199.5t168.5 -534.5q0 -333 -171 -533t-451 -200q-277 0 -448 200.5t-171 532.5zM403 700q0 -140 27 -241t88 -161t152 -60q92 0 152 59t86 159.5t26 243.5q0 140 -26 241.5t-86.5 162.5t-151.5 61t-152 -60t-88 -162 t-27 -243z" />
<glyph unicode="1" horiz-adv-x="831" d="M53 897v233q148 5 248 76.5t125 208.5h274v-1415h-346v897h-301z" />
<glyph unicode="2" horiz-adv-x="1189" d="M45 0q4 163 68 277.5t180 209.5q64 54 204 157t197 153q92 82 92 174q0 84 -46.5 133t-135.5 49q-100 0 -151 -63q-61 -70 -64 -207h-323q0 122 22.5 204.5t73.5 151.5q63 90 176.5 141.5t273.5 51.5q124 0 223.5 -35t164 -96.5t99 -142.5t34.5 -175q0 -71 -18 -131 t-53.5 -109t-72 -85t-90.5 -78q-34 -28 -175.5 -129.5t-199.5 -163.5v-2h611v-285h-1090z" />
<glyph unicode="3" horiz-adv-x="1226" d="M29 485h325q14 -254 258 -254q104 0 161.5 53t57.5 142q0 184 -239 184h-84v240h76q100 0 158.5 43t58.5 121q0 73 -49 116.5t-136 43.5q-107 0 -162 -58.5t-61 -157.5h-321q5 215 148.5 344.5t400.5 129.5q235 0 377.5 -106t142.5 -290q0 -197 -213 -280v-4 q254 -77 254 -344q0 -109 -45 -195t-122.5 -139t-176 -80t-211.5 -27q-293 0 -443 135q-155 137 -155 383z" />
<glyph unicode="4" horiz-adv-x="1269" d="M43 311v318l649 788h340v-844h203v-262h-203v-311h-336v311h-653zM303 573h393v482h-4l-389 -477v-5z" />
<glyph unicode="5" horiz-adv-x="1234" d="M27 420h338q17 -88 83 -133t164 -45q103 0 165.5 66t62.5 173q0 108 -63 170t-167 62q-64 0 -116.5 -24t-83.5 -62h-324l143 776h871v-277h-623l-49 -249h4q91 84 273 84q206 0 344.5 -133t138.5 -349q0 -232 -156.5 -372t-410.5 -140q-249 0 -409.5 116.5t-184.5 336.5z " />
<glyph unicode="6" horiz-adv-x="1265" d="M51 690q-3 365 170 561q157 181 445 181q216 0 350.5 -100t167.5 -275h-330q-19 61 -61.5 95t-122.5 34q-128 0 -198.5 -92t-78.5 -263h4q62 65 137.5 99.5t184.5 34.5q101 0 193 -36t161.5 -99.5t110.5 -158t41 -204.5q0 -148 -72 -262.5t-198.5 -176t-286.5 -61.5 q-200 0 -341 94.5t-208.5 255.5t-67.5 373zM412 465q0 -105 67.5 -172.5t175.5 -67.5q105 0 173.5 68.5t68.5 171.5q0 105 -68.5 175.5t-173.5 70.5q-111 0 -177 -69t-66 -177z" />
<glyph unicode="7" horiz-adv-x="1116" d="M35 1110v293h1038v-266q-130 -130 -232.5 -297t-172.5 -388t-78 -452h-361q5 147 38 291.5t81.5 260t113 224.5t125 186.5t124.5 143.5v4h-676z" />
<glyph unicode="8" horiz-adv-x="1247" d="M39 401q0 120 63.5 210.5t180.5 140.5v6q-187 88 -187 282q0 176 144 284t385 108q246 0 386 -102.5t140 -282.5t-184 -281v-6q117 -44 180 -135.5t63 -214.5q0 -202 -161 -322.5t-422 -120.5q-263 0 -425.5 118t-162.5 316zM381 424q0 -92 66.5 -146.5t177.5 -54.5 q109 0 175 54.5t66 146.5q0 94 -64.5 151.5t-174.5 57.5t-178 -57.5t-68 -151.5zM416 1024q0 -77 55.5 -124.5t151.5 -47.5t152 47.5t56 124.5q0 76 -55.5 123t-152.5 47t-152 -47t-55 -123z" />
<glyph unicode="9" horiz-adv-x="1263" d="M43 932q0 224 158.5 362t406.5 138q130 0 239 -41t183 -117q184 -178 184 -563q0 -355 -145 -545q-152 -199 -451 -199q-222 0 -362 104t-170 277h328q42 -133 196 -133q121 0 183 80q73 88 79 278h-4q-123 -137 -313 -137q-143 0 -259 60t-184.5 174t-68.5 262zM371 934 q0 -107 66 -175.5t179 -68.5q109 0 179.5 68t70.5 174t-70 175t-180 69q-109 0 -177 -68.5t-68 -173.5z" />
<glyph unicode=":" horiz-adv-x="493" d="M72 0v344h350v-344h-350zM72 635v344h350v-344h-350z" />
<glyph unicode=";" horiz-adv-x="493" d="M72 0v344h350v-317q0 -180 -96 -281q-96 -103 -250 -113v142q75 21 117.5 79.5t42.5 145.5h-164zM72 635v344h350v-344h-350z" />
<glyph unicode="&#x3c;" horiz-adv-x="1028" d="M88 481v303l844 355v-293l-375 -146q-19 -7 -62.5 -22.5t-62.5 -22.5q-11 -4 -34.5 -12t-35.5 -12v-4q12 -3 35.5 -10.5t34.5 -10.5q20 -7 63 -19.5t62 -19.5l375 -135v-305z" />
<glyph unicode="=" horiz-adv-x="1153" d="M104 287v260h959v-260h-959zM104 721v260h959v-260h-959z" />
<glyph unicode="&#x3e;" horiz-adv-x="1028" d="M96 127v295l375 145q19 7 62 22.5t63 22.5q15 4 70 23v4q-12 3 -35.5 10t-34.5 10q-19 7 -62 20.5t-63 20.5l-375 136v303l844 -355v-303z" />
<glyph unicode="?" horiz-adv-x="1132" d="M29 1004q5 219 151 353t400 134q228 0 369 -116.5t141 -301.5q0 -69 -16 -123.5t-48.5 -94.5t-59 -62.5t-69.5 -51.5q-11 -7 -35 -22t-32.5 -20t-26 -16.5t-25.5 -17.5t-19.5 -15t-19 -16.5t-14.5 -15.5q-23 -29 -31 -58.5t-8 -80.5h-295q0 102 16.5 165t42.5 96.5 t82 80.5q25 24 69 55t70 50.5t47 55t21 79.5q0 70 -49 111.5t-125 41.5q-93 0 -150 -56.5t-57 -153.5h-329zM358 0v344h351v-344h-351z" />
<glyph unicode="@" horiz-adv-x="1861" d="M72 580q0 165 49.5 308.5t135 247.5t199.5 178.5t244.5 111t268.5 36.5q169 0 318.5 -51t264 -145.5t181.5 -242.5t67 -329q0 -251 -114.5 -392.5t-301.5 -141.5q-233 0 -301 166h-4q-94 -160 -272 -160q-155 0 -245.5 107.5t-90.5 293.5q0 219 108 356.5t291 137.5 q165 0 228 -148h4l14 125h281l-66 -555q-11 -74 8 -110.5t72 -36.5q35 0 67.5 19t61 58.5t45.5 110.5t17 166q0 147 -47 261.5t-132 187.5t-200 110t-256 37t-265.5 -47.5t-219 -135.5t-149 -222.5t-54.5 -298.5q0 -185 72.5 -326.5t218.5 -223t348 -81.5q188 0 364 76 l66 -162q-183 -88 -433 -88q-241 0 -432.5 98.5t-301 282.5t-109.5 422zM768 575q0 -84 32 -136t95 -52q81 0 130.5 74.5t49.5 193.5q0 83 -34.5 136t-98.5 53q-78 0 -126 -77t-48 -192z" />
<glyph unicode="A" d="M-2 0l526 1464h373l528 -1464h-381l-86 264h-512l-84 -264h-364zM530 524h344l-110 355q-24 68 -39 131l-18 75h-5q-3 -15 -10 -39.5t-10 -35.5q-6 -19 -18.5 -64.5t-20.5 -66.5z" />
<glyph unicode="B" horiz-adv-x="1374" d="M100 0v1464h707q215 0 342 -100q127 -106 127 -281q0 -209 -205 -286v-6q122 -37 192 -133t70 -226q0 -213 -149 -328q-131 -104 -361 -104h-723zM459 291h323q90 0 141.5 46.5t51.5 125.5q0 85 -54.5 130.5t-142.5 45.5h-319v-348zM459 885h295q80 0 128 38.5t48 108.5 q0 68 -47 107t-127 39h-297v-293z" />
<glyph unicode="C" horiz-adv-x="1437" d="M41 727q0 217 88.5 391t253.5 274.5t379 100.5q250 0 418 -129q190 -142 219 -403h-363q-14 101 -88 166t-188 65q-172 0 -261 -127.5t-89 -337.5q0 -204 96 -333.5t256 -129.5q120 0 196.5 68t88.5 176h362q-15 -220 -176 -375q-175 -166 -469 -166q-212 0 -377.5 99 t-255.5 271.5t-90 389.5z" />
<glyph unicode="D" horiz-adv-x="1443" d="M100 0v1464h625q304 0 491 -203t187 -538q0 -194 -65.5 -345t-188.5 -245q-174 -133 -447 -133h-602zM463 305h213q179 0 269.5 107t90.5 311t-93 321t-263 117h-217v-856z" />
<glyph unicode="E" horiz-adv-x="1286" d="M100 0v1464h1110v-299h-747v-262h641v-282h-641v-314h760v-307h-1123z" />
<glyph unicode="F" horiz-adv-x="1232" d="M100 0v1464h1090v-305h-727v-297h608v-293h-608v-569h-363z" />
<glyph unicode="G" horiz-adv-x="1509" d="M43 727q0 172 56 319t161 252q195 195 502 195q278 0 444.5 -136t204.5 -372h-352q-21 95 -94.5 152t-190.5 57q-175 0 -268.5 -129.5t-93.5 -337.5q0 -206 99.5 -336.5t268.5 -130.5q135 0 220 75.5t98 180.5v4h-275v266h611v-786h-254l-21 176h-4q-134 -209 -416 -209 q-307 0 -499 205q-197 212 -197 555z" />
<glyph unicode="H" horiz-adv-x="1439" d="M100 0v1464h363v-555h514v555h362v-1464h-362v610h-514v-610h-363z" />
<glyph unicode="I" horiz-adv-x="565" d="M102 0v1464h363v-1464h-363z" />
<glyph unicode="J" horiz-adv-x="1116" d="M27 440v129h329v-120q0 -177 160 -177q152 0 152 172v1020h362v-1028q0 -201 -104 -317q-133 -146 -387 -146q-251 0 -381.5 125.5t-130.5 341.5z" />
<glyph unicode="K" d="M100 0v1464h363v-530l504 530h430l-561 -587l594 -877h-422l-422 633l-123 -129v-504h-363z" />
<glyph unicode="L" horiz-adv-x="1157" d="M100 0v1464h363v-1157h657v-307h-1020z" />
<glyph unicode="M" horiz-adv-x="1708" d="M100 0v1464h488l178 -641q6 -21 51 -200q4 -17 15.5 -62.5t17.5 -71.5h4q2 8 31 134q25 113 51 200l180 641h492v-1464h-332v737q0 102 2 168q1 20 2 61.5t2 63.5h-4q-5 -22 -15 -61t-14 -56q-21 -94 -39 -155l-211 -758h-299l-208 756q-24 83 -41 157q-12 53 -27 117h-4 q0 -86 2 -125q4 -132 4 -170v-735h-326z" />
<glyph unicode="N" horiz-adv-x="1454" d="M100 0v1464h365l434 -735q5 -13 59 -108q7 -13 41 -78h5q-3 50 -3 94q-2 51 -2 133v694h355v-1464h-365l-430 725q-15 20 -61 113q-39 76 -43 84h-4q0 -70 2 -101q0 -31 1 -80.5t1 -58.5v-682h-355z" />
<glyph unicode="O" horiz-adv-x="1529" d="M41 729q0 163 51.5 304t144 242.5t228.5 159.5t299 58t299.5 -58t229.5 -159.5t144.5 -242.5t51.5 -304t-51.5 -304t-144.5 -242.5t-229.5 -159.5t-299.5 -58t-299 58t-228.5 159.5t-144 242.5t-51.5 304zM410 729q0 -209 92.5 -339t263.5 -130q172 0 263 129.5t91 339.5 t-91 340.5t-263 130.5q-171 0 -263.5 -131t-92.5 -340z" />
<glyph unicode="P" horiz-adv-x="1335" d="M100 0v1464h660q261 0 399 -135q148 -136 148 -360q0 -212 -135.5 -346t-360.5 -134h-342v-489h-369zM469 776h268q97 0 151 53t54 142q0 88 -53.5 138t-151.5 50h-268v-383z" />
<glyph unicode="Q" horiz-adv-x="1525" d="M41 729q0 163 51 304t143 242.5t228 159.5t299 58t299.5 -58t229 -159.5t143.5 -242.5t51 -304q0 -309 -168 -514l166 -156l-168 -178l-185 176q-162 -92 -368 -92q-163 0 -299 58t-228 159.5t-143 242.5t-51 304zM410 729q0 -209 91.5 -339t262.5 -130q70 0 131 25 l-133 129l168 174l135 -129q51 111 51 270q0 137 -37.5 241.5t-118.5 167t-196 62.5t-196 -62.5t-119.5 -167t-38.5 -241.5z" />
<glyph unicode="R" horiz-adv-x="1374" d="M100 0v1464h701q225 0 368.5 -112t143.5 -310q0 -267 -254 -354v-6q96 -32 146 -94.5t67 -173.5q13 -73 18 -177.5t12.5 -157.5t30.5 -61v-18h-352q-17 10 -25.5 59.5t-15 139.5t-14.5 141q-14 105 -72 157t-172 52h-219v-549h-363zM463 817h272q107 0 162 46t55 132 q0 82 -54 132.5t-155 50.5h-280v-361z" />
<glyph unicode="S" horiz-adv-x="1331" d="M31 461h364q12 -109 83 -159t204 -50q63 0 114.5 14.5t86.5 50.5t35 89q0 28 -8 49.5t-28.5 39t-41 29t-61 24.5t-71.5 21t-89 22q-14 3 -21 5q-65 15 -110 27t-104 33t-99 43t-82.5 56t-68 73.5t-42 93.5t-16.5 118q0 114 44.5 201.5t123.5 141.5t183.5 81t229.5 27 q121 0 223 -28t179.5 -82.5t123.5 -141.5t52 -199h-354q-10 86 -71.5 131.5t-164.5 45.5q-96 0 -153.5 -38t-57.5 -100q0 -30 14.5 -53t35.5 -38t66.5 -30t86.5 -25t115 -27q9 -2 14 -3q67 -16 114.5 -30t105.5 -35.5t98 -45t80.5 -58.5t64.5 -75.5t39.5 -95.5t15.5 -121 q0 -148 -80 -258t-214.5 -164.5t-305.5 -54.5q-296 0 -472.5 129t-180.5 367z" />
<glyph unicode="T" horiz-adv-x="1288" d="M35 1157v307h1218v-307h-430v-1157h-362v1157h-426z" />
<glyph unicode="U" horiz-adv-x="1404" d="M90 516v948h363v-960q0 -240 252 -240q123 0 185 66.5t62 179.5v954h363v-948q0 -258 -154.5 -400.5t-455.5 -142.5q-305 0 -460 140.5t-155 402.5z" />
<glyph unicode="V" horiz-adv-x="1333" d="M-4 1464h377l229 -768q9 -31 24.5 -91t20.5 -79q3 -15 23 -88h4q17 60 22 88q5 19 20.5 79t24.5 91l228 768h366l-481 -1464h-375z" />
<glyph unicode="W" horiz-adv-x="1925" d="M0 1464h367l147 -614q5 -22 45 -234q3 -22 23 -129h4q5 30 22 119q15 71 49 230l138 628h335l138 -624q25 -117 47 -232q7 -48 22 -121h4l25 129q17 91 49 238l146 610h364l-401 -1464h-355l-153 702q-8 33 -35 181q-3 16 -8 46.5t-8 45.5h-4q-3 -15 -8.5 -46t-8.5 -46 q-3 -18 -9 -55.5t-12 -69t-12 -56.5l-153 -702h-357z" />
<glyph unicode="X" horiz-adv-x="1415" d="M6 0l486 768l-445 696h414l248 -426h4l252 426h393l-434 -692l485 -772h-428l-274 496h-5l-284 -496h-412z" />
<glyph unicode="Y" horiz-adv-x="1357" d="M2 1464h395l189 -379q18 -37 65 -149l31 -74h4l31 74q24 56 69 149l187 379h383l-496 -923v-541h-362v541z" />
<glyph unicode="Z" horiz-adv-x="1327" d="M53 0v289l633 758q7 7 26.5 30t30.5 35q12 14 41 43v6q-20 -2 -57 -2q-31 -2 -82 -2h-541v307h1141v-284l-614 -738q-9 -11 -34 -37.5t-38 -42.5q-7 -8 -23 -25t-24 -26v-6q43 0 63 2q19 0 54 1t45 1h598v-309h-1219z" />
<glyph unicode="[" horiz-adv-x="815" d="M119 -283v1827h629v-256h-314v-1315h314v-256h-629z" />
<glyph unicode="\" horiz-adv-x="894" d="M25 1464h286l547 -1464h-287z" />
<glyph unicode="]" horiz-adv-x="815" d="M70 -27h313v1315h-313v256h628v-1827h-628v256z" />
<glyph unicode="^" horiz-adv-x="954" d="M12 870l342 594h246l342 -594h-297l-168 308h-2l-174 -308h-289z" />
<glyph unicode="_" horiz-adv-x="880" d="M-6 -139h893v-207h-893v207z" />
<glyph unicode="`" horiz-adv-x="1024" d="M172 1475h385l117 -304h-254z" />
<glyph unicode="a" horiz-adv-x="1107" d="M31 293q0 67 21 119.5t56.5 88t88.5 60.5t109 39t126 23q156 20 211 42t55 74q0 53 -35 83t-108 30q-155 0 -170 -135h-307q5 157 127 258.5t348 101.5q225 0 340 -86q133 -98 133 -299v-528q0 -68 7.5 -102.5t29.5 -47.5v-14h-324q-21 31 -34 117h-5q-50 -70 -124 -107 t-187 -37q-161 0 -259.5 84t-98.5 236zM352 303q0 -60 39 -88.5t105 -28.5q94 0 152.5 51.5t58.5 137.5v125q-52 -28 -172 -56q-101 -24 -142 -53.5t-41 -87.5z" />
<glyph unicode="b" horiz-adv-x="1200" d="M80 0v1464h334v-534h6q109 149 299 149q201 0 324.5 -157t123.5 -398q0 -260 -121 -408.5t-325 -148.5q-217 0 -318 166h-4v-133h-319zM403 524q0 -132 60.5 -212.5t163.5 -80.5q97 0 149.5 78.5t52.5 216.5q0 139 -53 219t-153 80q-107 0 -163.5 -83.5t-56.5 -217.5z " />
<glyph unicode="c" horiz-adv-x="1114" d="M33 522q0 241 151 398t398 157q210 0 341 -109.5t156 -291.5h-321q-37 155 -172 155q-106 0 -160.5 -81.5t-54.5 -227.5q0 -144 54.5 -224.5t160.5 -80.5q161 0 182 180h319q-8 -186 -143 -308t-354 -122q-165 0 -292.5 72.5t-196 198.5t-68.5 284z" />
<glyph unicode="d" horiz-adv-x="1204" d="M33 524q0 246 128 400.5t331 154.5q104 0 172 -38.5t120 -110.5h7v534h333v-1464h-319v141h-4q-48 -83 -127 -128.5t-182 -45.5q-205 0 -332 149.5t-127 407.5zM371 528q0 -138 54.5 -217.5t152.5 -79.5q103 0 162 81t59 212q0 137 -56 220t-161 83q-98 0 -154.5 -82 t-56.5 -217z" />
<glyph unicode="e" horiz-adv-x="1146" d="M33 526q0 156 67.5 281.5t191 198.5t279.5 73q215 0 359 -131q92 -84 139 -216q45 -126 45 -281v-13h-754q18 -109 76.5 -169t159.5 -60q125 0 174 104h326q-36 -151 -176 -247q-135 -97 -328 -97q-169 0 -297 73t-195 198.5t-67 285.5zM362 637h414q-11 94 -64 149.5 t-134 55.5q-178 0 -216 -205z" />
<glyph unicode="f" horiz-adv-x="714" d="M23 836v213h135v75q0 158 86 244q64 63 182 84q69 12 149 12q54 0 113 -6v-235q-18 1 -35 1q-77 0 -115 -20q-46 -23 -46 -104v-51h196v-213h-196v-836h-334v836h-135z" />
<glyph unicode="g" horiz-adv-x="1171" d="M33 555q0 230 122.5 377t317.5 147q193 0 295 -143h4v113h320v-947q0 -221 -140 -348q-130 -116 -385 -116q-219 0 -353.5 86.5t-158.5 250.5h324q33 -102 184 -102q201 0 201 201v104h-8q-52 -59 -115 -90t-154 -31q-89 0 -170.5 33t-145 94.5t-101 157.5t-37.5 213z M358 565q0 -118 56.5 -189t150.5 -71q104 0 158.5 73t54.5 189q0 111 -56.5 185.5t-156.5 74.5q-94 0 -150.5 -70.5t-56.5 -191.5z" />
<glyph unicode="h" horiz-adv-x="1167" d="M80 0v1464h334v-544h6q61 80 133.5 119.5t177.5 39.5q169 0 267 -109.5t98 -287.5v-682h-334v614q0 87 -42 137t-122 50q-84 0 -134 -61t-50 -160v-580h-334z" />
<glyph unicode="i" horiz-adv-x="493" d="M80 0v1049h334v-1049h-334zM80 1194v270h334v-270h-334z" />
<glyph unicode="j" horiz-adv-x="493" d="M-96 -104q38 0 54.5 0.5t42.5 3.5t36 9.5t22.5 19t16.5 32t4 47.5v1041h334v-1057q0 -179 -80 -262q-82 -82 -242 -82q-106 0 -188 16v232zM80 1194v270h334v-270h-334z" />
<glyph unicode="k" horiz-adv-x="1146" d="M80 0v1464h330v-770l311 355h385l-369 -394l412 -655h-387l-252 428l-100 -106v-322h-330z" />
<glyph unicode="l" horiz-adv-x="501" d="M82 0v1464h338v-1464h-338z" />
<glyph unicode="m" horiz-adv-x="1779" d="M80 0v1049h319v-150h7q109 180 317 180q103 0 178 -48t117 -136h4q117 184 330 184q174 0 265 -106.5t91 -290.5v-682h-334v623q0 178 -147 178q-78 0 -122 -58.5t-44 -154.5v-588h-334v623q0 178 -147 178q-77 0 -121.5 -59t-44.5 -154v-588h-334z" />
<glyph unicode="n" horiz-adv-x="1167" d="M80 0v1049h321v-144h7q62 89 138.5 131.5t184.5 42.5q169 0 267 -109.5t98 -287.5v-682h-334v614q0 87 -42 137t-122 50q-84 0 -134 -61t-50 -160v-580h-334z" />
<glyph unicode="o" horiz-adv-x="1185" d="M33 522q0 241 155.5 398t405.5 157t404.5 -157t154.5 -398t-154.5 -398t-404.5 -157t-405.5 157t-155.5 398zM371 522q0 -146 56.5 -231.5t164.5 -85.5t165.5 85.5t57.5 231.5t-57.5 233t-165.5 87q-107 0 -164 -86.5t-57 -233.5z" />
<glyph unicode="p" horiz-adv-x="1204" d="M80 -346v1395h319v-127h7q118 157 317 157q205 0 326.5 -156t121.5 -399q0 -254 -125.5 -405.5t-330.5 -151.5q-191 0 -297 142h-4v-455h-334zM403 512q0 -131 59.5 -209t166.5 -78q97 0 151 76t54 211q0 140 -52.5 219.5t-158.5 79.5q-107 0 -163.5 -82.5t-56.5 -216.5z " />
<glyph unicode="q" horiz-adv-x="1204" d="M41 524q0 160 53.5 284.5t159 197.5t248.5 73q194 0 299 -164h6v134h317v-1395h-331v457h-7q-97 -144 -290 -144q-200 0 -327.5 152.5t-127.5 404.5zM379 516q0 -135 54.5 -210t152.5 -75q99 0 158 78t59 207q0 133 -56.5 217t-160.5 84q-105 0 -156 -80t-51 -221z" />
<glyph unicode="r" horiz-adv-x="784" d="M80 0v1049h319v-164h7q56 95 123 137.5t163 42.5q50 0 66 -8v-287h-8q-37 6 -71 6q-107 0 -175 -59q-90 -77 -90 -246v-471h-334z" />
<glyph unicode="s" horiz-adv-x="1032" d="M16 340h316q21 -156 192 -156q76 0 120 27.5t44 77.5q0 20 -7 36t-23 27.5t-31 19t-43.5 14.5t-48 11t-56.5 10.5t-57 10.5q-48 9 -79 15.5t-74.5 20t-72 28.5t-60 39.5t-49.5 54.5t-30 72.5t-12 94.5q0 159 129 247.5t324 88.5q219 0 340 -89t133 -247h-307 q-10 68 -52 95.5t-116 27.5q-65 0 -105.5 -24.5t-40.5 -71.5q0 -24 14 -40.5t50.5 -28.5t61.5 -17t85 -15q27 -5 41 -7q50 -9 81 -15.5t78 -20.5t77 -30t64.5 -42.5t54.5 -58.5t33.5 -78t13.5 -102q0 -111 -63 -191t-169.5 -118.5t-245.5 -38.5q-231 0 -366.5 99.5 t-143.5 273.5z" />
<glyph unicode="t" horiz-adv-x="718" d="M23 840v209h139v331h325v-331h191v-209h-191v-492q0 -58 29 -80t88 -22q18 0 43.5 1t30.5 1v-244q-62 -16 -182 -16q-77 0 -135 13.5t-104.5 45.5t-70.5 89.5t-24 139.5v564h-139z" />
<glyph unicode="u" horiz-adv-x="1159" d="M72 360v689h331v-619q0 -178 158 -178q85 0 134.5 58t49.5 153v586h334v-1049h-319v129h-6q-59 -81 -133 -120.5t-181 -39.5q-179 0 -273.5 105t-94.5 286z" />
<glyph unicode="v" horiz-adv-x="1073" d="M-6 1049h344l143 -474q8 -30 22.5 -79t18.5 -66q17 -64 17 -65h4q3 11 8.5 33.5t7.5 31.5q9 34 41 145l145 474h334l-362 -1049h-361z" />
<glyph unicode="w" horiz-adv-x="1603" d="M-4 1049h340l115 -435q3 -12 15 -60.5t17 -72.5q11 -45 15 -69h4l14 71q15 79 33 138l110 428h283l115 -428q8 -37 33 -140q3 -11 8 -34.5t8 -36.5h4q3 13 8 36.5t8 34.5q31 126 33 133l117 435h330l-322 -1049h-313l-123 475q-13 39 -31 125q-5 20 -14 64h-4 q-6 -28 -15 -64q-5 -22 -17 -66.5t-15 -58.5l-125 -475h-310z" />
<glyph unicode="x" horiz-adv-x="1146" d="M14 0l365 551l-330 498h381l156 -271h4l147 271h350l-311 -494l357 -555h-388l-172 313h-4l-190 -313h-365z" />
<glyph unicode="y" horiz-adv-x="1083" d="M-6 1049h352l141 -447q9 -28 24 -84.5t21 -75.5q3 -13 10.5 -40.5t10.5 -41.5h4q3 14 9 41.5t9 40.5q15 71 43 160l138 447h334l-363 -1063q-61 -184 -149.5 -258t-245.5 -74h-217v260h114q138 0 138 111q0 33 -13.5 76.5t-50.5 140.5z" />
<glyph unicode="z" horiz-adv-x="1034" d="M49 0v248l416 448q4 4 15.5 14.5t21.5 21t18 20.5q5 6 35 36v7q-18 -2 -53 -2h-76h-328v254h860v-244l-397 -432l-65 -66q-7 -7 -20.5 -21.5t-20.5 -21.5v-6h59q18 0 51 1t45 1h379v-258h-940z" />
<glyph unicode="{" horiz-adv-x="815" d="M51 510v246q94 4 133 40.5t39 112.5v242q0 116 28 192.5t89.5 120.5t146 62t209.5 18h52v-256h-37q-96 0 -134 -26.5t-38 -110.5v-293q0 -98 -31.5 -145.5t-101.5 -75.5v-6q70 -28 101.5 -76t31.5 -143v-299q0 -83 38.5 -111.5t133.5 -28.5h37v-256h-52q-124 0 -209 18.5 t-146.5 63.5t-89.5 122.5t-28 193.5v241q0 77 -38.5 113.5t-133.5 40.5z" />
<glyph unicode="|" horiz-adv-x="438" d="M119 -283v1827h203v-1827h-203z" />
<glyph unicode="}" horiz-adv-x="815" d="M70 -27h36q94 0 133.5 27.5t39.5 110.5v299q0 96 31 143.5t102 75.5v6q-72 31 -102.5 77t-30.5 144v293q0 82 -40 110.5t-133 28.5h-36v256h51q124 0 208.5 -18t146 -62.5t90 -121.5t28.5 -193v-240q0 -76 39 -112.5t131 -40.5v-246q-92 -4 -131 -41t-39 -113v-243 q0 -116 -28.5 -193t-90 -121.5t-146 -63t-208.5 -18.5h-51v256z" />
<glyph unicode="~" horiz-adv-x="907" d="M49 489q0 176 72.5 267.5t183.5 91.5q72 0 164 -43q6 -3 21.5 -10.5t20 -10t16.5 -7.5t17 -6.5t14 -4.5t16.5 -3.5t15.5 -0.5q37 0 53 20.5t21 65.5h208q0 -167 -60.5 -257.5t-180.5 -90.5q-85 0 -168 39q-36 17 -52 24t-37 13t-40 6q-67 0 -76 -93h-209z" />
<glyph unicode="&#xa1;" horiz-adv-x="540" d="M96 860v344h348v-344h-348zM98 88l86 639h172l86 -639v-348h-344v348z" />
<glyph unicode="&#xa2;" horiz-adv-x="1114" d="M33 522q0 224 131 377.5t350 173.5v144h125v-142q183 -18 295.5 -125t136.5 -274h-311q-25 112 -121 147v-602q113 34 131 176h309q-8 -172 -127 -291.5t-313 -136.5v-188h-125v190q-220 25 -350.5 176.5t-130.5 374.5zM360 522q0 -119 38.5 -197t115.5 -102v600 q-74 -25 -114 -103.5t-40 -197.5z" />
<glyph unicode="&#xa3;" horiz-adv-x="1210" d="M47 231q195 125 195 279q0 32 -11 82h-174v190h82q-57 102 -57 213q0 192 143 314.5t400 122.5q241 0 383 -115q80 -65 121 -159t45 -238h-332q-1 124 -57 182.5t-154 58.5q-91 0 -139 -47.5t-48 -128.5q0 -35 11.5 -75t20.5 -59.5t34 -68.5h276v-190h-215q2 -10 2 -33 q0 -140 -153 -252l4 -6q79 31 147 31q78 0 155 -25.5t128 -25.5q99 0 188 81l142 -268q-62 -56 -148.5 -90.5t-175.5 -34.5q-69 0 -131.5 16t-101 34.5t-91.5 34.5t-106 16q-57 0 -106 -23t-111 -67z" />
<glyph unicode="&#xa4;" horiz-adv-x="1048" d="M29 369l131 131q-51 92 -51 215q0 121 51 213l-131 135l172 168l133 -139q87 41 190 41q102 0 189 -41l135 139l172 -168l-135 -135q53 -95 53 -213q0 -121 -51 -213l133 -133l-172 -168l-135 137q-85 -39 -189 -39q-111 0 -188 39l-135 -137zM342 715q0 -106 47.5 -167 t134.5 -61q85 0 130.5 61t45.5 167t-45.5 167.5t-130.5 61.5q-87 0 -134.5 -61.5t-47.5 -167.5z" />
<glyph unicode="&#xa5;" horiz-adv-x="1323" d="M2 1405h383l186 -358q43 -89 62 -134q5 -11 13.5 -32.5t12.5 -30.5h5q3 5 28 63q19 45 62 134l184 358h375l-439 -762h295v-133h-344v-117h344v-131h-344v-262h-333v262h-347v131h347v117h-347v133h293z" />
<glyph unicode="&#xa6;" horiz-adv-x="438" d="M119 -283v785h203v-785h-203zM119 786v758h203v-758h-203z" />
<glyph unicode="&#xa7;" horiz-adv-x="1280" d="M59 608q0 107 64 181.5t178 107.5q-52 45 -76 93.5t-24 129.5q0 153 124.5 247.5t321.5 94.5q210 0 334.5 -101.5t134.5 -289.5h-289q-13 148 -165 148q-69 0 -104.5 -28t-35.5 -73q0 -34 28.5 -60.5t65 -43t131.5 -53.5q48 -19 74 -29q55 -22 90 -37.5t82.5 -39.5 t77.5 -44.5t63 -50.5t51.5 -60.5t31 -70t12.5 -84.5q0 -116 -59 -184t-169 -101q132 -98 132 -258q0 -176 -128 -274.5t-335 -98.5q-234 0 -369 113.5t-141 312.5h305q2 -82 51 -127t139 -45q70 0 111 33.5t41 85.5q0 20 -6 36.5t-22.5 31t-33 25t-51 25t-60.5 24.5 t-78.5 29.5t-90.5 33.5q-83 32 -140.5 59.5t-111 63t-85.5 74.5t-50.5 90.5t-18.5 113.5zM362 649q0 -43 41 -70t180 -89q27 -12 42 -19l184 -82q106 27 106 105q0 26 -12 45.5t-53 42.5t-64.5 33t-99.5 41q-5 3 -8 4l-7.5 2.5t-8.5 3.5q-15 6 -91.5 37t-111.5 49 q-97 -25 -97 -103z" />
<glyph unicode="&#xa8;" horiz-adv-x="1024" d="M125 1182v262h313v-262h-313zM586 1182v262h313v-262h-313z" />
<glyph unicode="&#xa9;" horiz-adv-x="1673" d="M82 727q0 215 100.5 390.5t273.5 274.5t382 99q156 0 295.5 -58.5t240 -159t159 -243t58.5 -303.5q0 -215 -100 -390t-272 -273.5t-381 -98.5q-156 0 -295.5 58t-241 158.5t-160.5 242.5t-59 303zM207 727q0 -138 48.5 -260t132 -208.5t200.5 -136.5t250 -50 q177 0 320.5 85t225.5 235t82 335q0 186 -82 336.5t-225.5 235.5t-320.5 85q-133 0 -250 -50t-200.5 -137t-132 -209t-48.5 -261zM403 735q0 200 123 330.5t320 130.5q147 0 258 -80q119 -88 135 -252h-246q-11 53 -48.5 86t-100.5 33q-89 0 -135.5 -68.5t-46.5 -179.5 q0 -110 50.5 -179t135.5 -69q66 0 106.5 37t46.5 94h248q-12 -145 -112 -239q-106 -103 -293 -103q-196 0 -318.5 130t-122.5 329z" />
<glyph unicode="&#xaa;" horiz-adv-x="1044" d="M51 743q0 74 26.5 127t78.5 85t111 49t143 28q136 17 185.5 38.5t49.5 64.5q0 96 -123 96q-136 0 -149 -117h-281q5 137 115.5 227.5t310.5 90.5q204 0 305 -76q121 -84 121 -262v-465q0 -111 33 -131v-15h-295q-23 37 -31 103h-4q-89 -123 -274 -123q-142 0 -232 74 t-90 206zM342 754q0 -52 33 -77.5t90 -25.5q83 0 135.5 44.5t52.5 117.5v111q-44 -26 -153 -50q-89 -19 -123.5 -45t-34.5 -75z" />
<glyph unicode="&#xab;" horiz-adv-x="901" d="M90 356v320l316 268v-291l-166 -139v-4l166 -137v-287zM487 356v320l310 268v-291l-162 -139v-4l162 -137v-287z" />
<glyph unicode="&#xac;" horiz-adv-x="1073" d="M82 612v269h879v-607h-285v338h-594z" />
<glyph unicode="&#xad;" horiz-adv-x="686" d="M66 371v286h557v-286h-557z" />
<glyph unicode="&#xae;" horiz-adv-x="1087" d="M53 995q0 212 142.5 354t349.5 142q206 0 347.5 -142t141.5 -354q0 -105 -38.5 -197.5t-104 -157.5t-155.5 -102.5t-191 -37.5q-207 0 -349.5 141.5t-142.5 353.5zM147 995q0 -179 113 -297t285 -118q170 0 282.5 118t112.5 297q0 177 -112.5 295.5t-282.5 118.5 q-171 0 -284.5 -118.5t-113.5 -295.5zM328 737v525h258q84 0 141 -40.5t57 -115.5q0 -95 -88 -125v-4q34 -10 51 -31.5t25 -58.5q3 -22 5 -58.5t6 -55.5t14 -23v-13h-152q-6 4 -9.5 21.5t-6.5 50.5t-6 49q-9 64 -76 64h-64v-185h-155zM483 1030h78q70 0 70 55q0 56 -70 56 h-78v-111z" />
<glyph unicode="&#xaf;" horiz-adv-x="1024" d="M225 1202v207h586v-207h-586z" />
<glyph unicode="&#xb0;" horiz-adv-x="768" d="M66 1124q0 128 94 219t225 91q130 0 225 -91t95 -219t-95 -216.5t-225 -88.5q-132 0 -225.5 88.5t-93.5 216.5zM246 1124q0 -62 37.5 -103.5t101.5 -41.5t101.5 41.5t37.5 103.5q0 63 -37.5 106.5t-101.5 43.5t-101.5 -43.5t-37.5 -106.5z" />
<glyph unicode="&#xb1;" horiz-adv-x="1159" d="M82 0v254h995v-254h-995zM82 633v266h358v287h279v-287h358v-266h-358v-289h-279v289h-358z" />
<glyph unicode="&#xb2;" horiz-adv-x="811" d="M55 651q1 98 40.5 169t111.5 130q36 32 77.5 59.5t88.5 56t71 44.5q32 26 47 48t15 52q0 86 -94 86q-55 0 -87 -37t-32 -104h-225q0 156 95.5 241t254.5 85q150 0 236.5 -74.5t86.5 -183.5q0 -75 -28 -126t-82 -96q-40 -35 -130 -84.5t-114 -76.5v-2h356v-187h-688z" />
<glyph unicode="&#xb3;" horiz-adv-x="798" d="M43 928h231q10 -123 127 -123q54 0 82.5 25.5t28.5 68.5q0 94 -129 94h-47v156h41q119 0 119 84q0 36 -24.5 58t-70.5 22q-97 0 -108 -103h-225q5 120 96 195.5t248 75.5q143 0 231 -62.5t88 -171.5q0 -103 -119 -157v-3q144 -54 144 -198q0 -127 -96 -191.5t-248 -64.5 q-180 0 -273.5 80t-95.5 215z" />
<glyph unicode="&#xb4;" horiz-adv-x="1024" d="M350 1171l117 304h385l-248 -304h-254z" />
<glyph unicode="&#xb5;" horiz-adv-x="1167" d="M80 -346v1395h332v-621q0 -178 157 -178q86 0 135.5 57t49.5 154v588h333v-1049h-319v129h-6q-94 -156 -248 -156q-57 0 -102 31h-4v-350h-328z" />
<glyph unicode="&#xb6;" horiz-adv-x="1234" d="M55 1069q0 182 117 293q111 102 311 102h641v-1464h-211v1268h-131v-1268h-213v686h-127q-175 0 -281 106.5t-106 276.5z" />
<glyph unicode="&#xb7;" horiz-adv-x="481" d="M66 479v344h350v-344h-350z" />
<glyph unicode="&#xb8;" horiz-adv-x="1024" d="M236 -336l40 72q67 -31 142 -31q47 0 78.5 14.5t31.5 44.5q0 28 -21.5 42t-55.5 14q-29 0 -72 -15l-35 50l145 145h129l-114 -96v-4q92 11 154.5 -25.5t62.5 -112.5q0 -72 -71.5 -114.5t-184.5 -42.5q-133 0 -229 59z" />
<glyph unicode="&#xb9;" horiz-adv-x="557" d="M41 1130v166q205 10 238 177h196v-822h-248v479h-186z" />
<glyph unicode="&#xba;" horiz-adv-x="1067" d="M37 944q0 212 137.5 350t360.5 138q221 0 358 -138t137 -350t-136.5 -349.5t-358.5 -137.5q-223 0 -360.5 137.5t-137.5 349.5zM344 944q0 -127 48.5 -201.5t139.5 -74.5q92 0 141.5 75t49.5 201t-49.5 201.5t-141.5 75.5q-91 0 -139.5 -75t-48.5 -202z" />
<glyph unicode="&#xbb;" horiz-adv-x="901" d="M104 86v291l162 139v4l-162 137v287l310 -270v-320zM496 86v291l166 139v4l-166 137v287l315 -270v-320z" />
<glyph unicode="&#xbc;" horiz-adv-x="1671" d="M47 1130v166q205 10 238 177h196v-822h-248v479h-186zM156 0l1114 1464h209l-1117 -1464h-206zM868 170v195l392 458h239v-483h119v-170h-119v-170h-239v170h-392zM1047 340h213v250h-3l-210 -248v-2z" />
<glyph unicode="&#xbd;" horiz-adv-x="1742" d="M47 1130v166q205 10 238 177h196v-822h-248v479h-186zM143 0l1114 1464h209l-1116 -1464h-207zM981 0q1 98 40.5 169t111.5 130q46 39 128.5 90.5t102.5 65.5q36 26 52 48.5t16 55.5q0 40 -23.5 63t-71.5 23q-55 0 -86.5 -37t-31.5 -104h-226q0 156 95.5 240.5 t254.5 84.5q150 0 237 -74.5t87 -183.5q0 -74 -28 -124.5t-83 -96.5q-39 -34 -129 -84.5t-114 -77.5v-2h356v-186h-688z" />
<glyph unicode="&#xbe;" horiz-adv-x="1808" d="M49 928h232q10 -123 127 -123q54 0 82 25.5t28 68.5q0 94 -129 94h-47v156h41q119 0 119 84q0 36 -24 58t-70 22q-98 0 -109 -103h-225q5 120 96 195.5t248 75.5q143 0 231 -62.5t88 -171.5q0 -103 -119 -157v-3q144 -54 144 -198q0 -127 -96 -191.5t-248 -64.5 q-180 0 -273.5 80t-95.5 215zM313 0l1114 1464h209l-1116 -1464h-207zM1008 170v195l391 458h239v-483h119v-170h-119v-170h-239v170h-391zM1186 340h213v250h-2l-211 -248v-2z" />
<glyph unicode="&#xbf;" horiz-adv-x="1120" d="M35 133q0 68 16 122t47 93.5t60 64.5t71 52q22 14 56 35.5t49.5 32t34 25t30.5 28.5q23 29 31 59t8 82h297q0 -102 -16.5 -165.5t-43 -98t-81.5 -80.5q-25 -22 -69.5 -53.5t-70 -51.5t-46.5 -55.5t-21 -79.5q0 -70 49 -111.5t125 -41.5q93 0 149.5 57t57.5 156h328 q-5 -220 -151.5 -355t-397.5 -135q-229 0 -370.5 116t-141.5 304zM418 860v344h348v-344h-348z" />
<glyph unicode="&#xc0;" d="M-2 0l526 1464h373l528 -1464h-381l-86 264h-512l-84 -264h-364zM387 1802h383l88 -266h-254zM530 524h344l-110 355q-24 68 -39 131l-18 75h-5q-3 -15 -10 -39.5t-10 -35.5q-6 -19 -18.5 -64.5t-20.5 -66.5z" />
<glyph unicode="&#xc1;" d="M-2 0l526 1464h373l528 -1464h-381l-86 264h-512l-84 -264h-364zM530 524h344l-110 355q-24 68 -39 131l-18 75h-5q-3 -15 -10 -39.5t-10 -35.5q-6 -19 -18.5 -64.5t-20.5 -66.5zM575 1536l89 266h383l-218 -266h-254z" />
<glyph unicode="&#xc2;" d="M-2 0l526 1464h373l528 -1464h-381l-86 264h-512l-84 -264h-364zM332 1536l219 256h319l220 -256h-281l-92 111h-4l-95 -111h-286zM530 524h344l-110 355q-24 68 -39 131l-18 75h-5q-3 -15 -10 -39.5t-10 -35.5q-6 -19 -18.5 -64.5t-20.5 -66.5z" />
<glyph unicode="&#xc3;" d="M-2 0l526 1464h373l528 -1464h-381l-86 264h-512l-84 -264h-364zM369 1538q0 134 59.5 205.5t151.5 71.5q69 0 135 -39q8 -4 21.5 -10.5t19 -9.5t15 -7t15.5 -5.5t13.5 -3t15.5 -1.5q30 0 43.5 17.5t18.5 53.5h172q0 -124 -53.5 -197t-151.5 -73q-55 0 -135 33 q-9 4 -26 12.5t-24 11.5t-18.5 7.5t-20 6t-18.5 1.5q-52 0 -61 -74h-172zM530 524h344l-110 355q-24 68 -39 131l-18 75h-5q-3 -15 -10 -39.5t-10 -35.5q-6 -19 -18.5 -64.5t-20.5 -66.5z" />
<glyph unicode="&#xc4;" d="M-2 0l526 1464h373l528 -1464h-381l-86 264h-512l-84 -264h-364zM334 1542v262h313v-262h-313zM530 524h344l-110 355q-24 68 -39 131l-18 75h-5q-3 -15 -10 -39.5t-10 -35.5q-6 -19 -18.5 -64.5t-20.5 -66.5zM774 1542v262h313v-262h-313z" />
<glyph unicode="&#xc5;" d="M-2 0l526 1464h373l528 -1464h-381l-86 264h-512l-84 -264h-364zM502 1714q0 84 61 142.5t148 58.5t148 -58.5t61 -142.5q0 -85 -61 -143t-148 -58t-148 58t-61 143zM530 524h344l-110 355q-24 68 -39 131l-18 75h-5q-3 -15 -10 -39.5t-10 -35.5q-6 -19 -18.5 -64.5 t-20.5 -66.5zM627 1714q0 -36 24 -62t60 -26q37 0 61.5 26t24.5 62t-24.5 62t-61.5 26q-36 0 -60 -26t-24 -62z" />
<glyph unicode="&#xc6;" horiz-adv-x="2037" d="M-2 0l496 1464h1462v-301h-707v-264h600v-281h-600v-301h729v-317h-1095v258h-443l-84 -258h-358zM522 510h361v653h-150z" />
<glyph unicode="&#xc7;" horiz-adv-x="1437" d="M41 727q0 217 88.5 391t253.5 274.5t379 100.5q250 0 418 -129q190 -142 219 -403h-363q-14 101 -88 166t-188 65q-172 0 -261 -127.5t-89 -337.5q0 -204 96 -333.5t256 -129.5q120 0 196.5 68t88.5 176h362q-15 -220 -176 -375q-159 -152 -422 -164l-76 -65v-4 q92 11 154.5 -25.5t62.5 -112.5q0 -72 -71.5 -114.5t-184.5 -42.5q-133 0 -229 59l41 72q67 -31 141 -31q47 0 79 14.5t32 44.5q0 28 -22 42t-56 14q-29 0 -72 -15l-35 50l115 116q-290 25 -469.5 234.5t-179.5 521.5z" />
<glyph unicode="&#xc8;" horiz-adv-x="1286" d="M100 0v1464h1110v-299h-747v-262h641v-282h-641v-314h760v-307h-1123zM350 1802h383l88 -266h-254z" />
<glyph unicode="&#xc9;" horiz-adv-x="1286" d="M100 0v1464h1110v-299h-747v-262h641v-282h-641v-314h760v-307h-1123zM539 1536l88 266h383l-217 -266h-254z" />
<glyph unicode="&#xca;" horiz-adv-x="1286" d="M100 0v1464h1110v-299h-747v-262h641v-282h-641v-314h760v-307h-1123zM295 1536l219 256h320l219 -256h-281l-92 111h-4l-94 -111h-287z" />
<glyph unicode="&#xcb;" horiz-adv-x="1286" d="M100 0v1464h1110v-299h-747v-262h641v-282h-641v-314h760v-307h-1123zM297 1542v262h313v-262h-313zM737 1542v262h314v-262h-314z" />
<glyph unicode="&#xcc;" horiz-adv-x="565" d="M-41 1802h383l88 -266h-254zM102 0v1464h363v-1464h-363z" />
<glyph unicode="&#xcd;" horiz-adv-x="565" d="M102 0v1464h363v-1464h-363zM147 1536l89 266h382l-217 -266h-254z" />
<glyph unicode="&#xce;" horiz-adv-x="565" d="M-96 1536l219 256h319l220 -256h-281l-92 111h-4l-95 -111h-286zM102 0v1464h363v-1464h-363z" />
<glyph unicode="&#xcf;" horiz-adv-x="565" d="M-94 1542v262h313v-262h-313zM102 0v1464h363v-1464h-363zM346 1542v262h313v-262h-313z" />
<glyph unicode="&#xd0;" horiz-adv-x="1462" d="M6 606v281h113v577h624q304 0 491 -203t187 -538q0 -360 -215 -557q-183 -166 -485 -166h-602v606h-113zM481 305h213q179 0 270 107t91 311q0 203 -93.5 320.5t-263.5 117.5h-217v-274h320v-281h-320v-301z" />
<glyph unicode="&#xd1;" horiz-adv-x="1454" d="M100 0v1464h365l434 -735q5 -13 59 -108q7 -13 41 -78h5q-3 50 -3 94q-2 51 -2 133v694h355v-1464h-365l-430 725q-15 20 -61 113q-39 76 -43 84h-4q0 -70 2 -101q0 -31 1 -80.5t1 -58.5v-682h-355zM387 1538q0 134 59.5 205.5t151.5 71.5q69 0 135 -39l21 -10.5 t19.5 -9.5t15.5 -6.5t16.5 -6t13 -3t15.5 -1.5q30 0 43 17.5t18 53.5h172q0 -124 -53.5 -197t-151.5 -73q-55 0 -135 33q-10 5 -26 12.5t-23.5 11t-18.5 8t-19.5 6t-18.5 1.5q-53 0 -62 -74h-172z" />
<glyph unicode="&#xd2;" horiz-adv-x="1529" d="M41 729q0 163 51.5 304t144 242.5t228.5 159.5t299 58t299.5 -58t229.5 -159.5t144.5 -242.5t51.5 -304t-51.5 -304t-144.5 -242.5t-229.5 -159.5t-299.5 -58t-299 58t-228.5 159.5t-144 242.5t-51.5 304zM410 729q0 -209 92.5 -339t263.5 -130q172 0 263 129.5t91 339.5 t-91 340.5t-263 130.5q-171 0 -263.5 -131t-92.5 -340zM440 1802h383l88 -266h-254z" />
<glyph unicode="&#xd3;" horiz-adv-x="1529" d="M41 729q0 163 51.5 304t144 242.5t228.5 159.5t299 58t299.5 -58t229.5 -159.5t144.5 -242.5t51.5 -304t-51.5 -304t-144.5 -242.5t-229.5 -159.5t-299.5 -58t-299 58t-228.5 159.5t-144 242.5t-51.5 304zM410 729q0 -209 92.5 -339t263.5 -130q172 0 263 129.5t91 339.5 t-91 340.5t-263 130.5q-171 0 -263.5 -131t-92.5 -340zM629 1536l88 266h383l-217 -266h-254z" />
<glyph unicode="&#xd4;" horiz-adv-x="1529" d="M41 729q0 163 51.5 304t144 242.5t228.5 159.5t299 58t299.5 -58t229.5 -159.5t144.5 -242.5t51.5 -304t-51.5 -304t-144.5 -242.5t-229.5 -159.5t-299.5 -58t-299 58t-228.5 159.5t-144 242.5t-51.5 304zM385 1536l219 256h320l219 -256h-281l-92 111h-4l-94 -111h-287z M410 729q0 -209 92.5 -339t263.5 -130q172 0 263 129.5t91 339.5t-91 340.5t-263 130.5q-171 0 -263.5 -131t-92.5 -340z" />
<glyph unicode="&#xd5;" horiz-adv-x="1529" d="M41 729q0 163 51.5 304t144 242.5t228.5 159.5t299 58t299.5 -58t229.5 -159.5t144.5 -242.5t51.5 -304t-51.5 -304t-144.5 -242.5t-229.5 -159.5t-299.5 -58t-299 58t-228.5 159.5t-144 242.5t-51.5 304zM410 729q0 -209 92.5 -339t263.5 -130q172 0 263 129.5t91 339.5 t-91 340.5t-263 130.5q-171 0 -263.5 -131t-92.5 -340zM434 1538q0 134 59.5 205.5t151.5 71.5q69 0 135 -39l21 -10.5t19.5 -9.5t15.5 -6.5t16.5 -6t13 -3t15.5 -1.5q30 0 43 17.5t18 53.5h172q0 -124 -53.5 -197t-151.5 -73q-55 0 -135 33q-10 5 -26 12.5t-23.5 11 t-18.5 8t-19.5 6t-18.5 1.5q-53 0 -62 -74h-172z" />
<glyph unicode="&#xd6;" horiz-adv-x="1529" d="M41 729q0 163 51.5 304t144 242.5t228.5 159.5t299 58t299.5 -58t229.5 -159.5t144.5 -242.5t51.5 -304t-51.5 -304t-144.5 -242.5t-229.5 -159.5t-299.5 -58t-299 58t-228.5 159.5t-144 242.5t-51.5 304zM387 1542v262h313v-262h-313zM410 729q0 -209 92.5 -339 t263.5 -130q172 0 263 129.5t91 339.5t-91 340.5t-263 130.5q-171 0 -263.5 -131t-92.5 -340zM827 1542v262h314v-262h-314z" />
<glyph unicode="&#xd7;" horiz-adv-x="1159" d="M80 350l311 318l-309 317l190 180l301 -309l306 309l188 -180l-309 -317l309 -316l-188 -182l-304 311l-305 -313z" />
<glyph unicode="&#xd8;" horiz-adv-x="1529" d="M41 729q0 163 51.5 304t144 242.5t228.5 159.5t299 58q263 0 450 -147l156 174l115 -101l-162 -180q166 -208 166 -510q0 -163 -51.5 -304t-144.5 -242.5t-229.5 -159.5t-299.5 -58q-253 0 -447 144l-159 -181l-113 103l164 184q-168 205 -168 514zM410 729 q0 -149 41 -244l548 619q-93 96 -233 96q-171 0 -263.5 -131t-92.5 -340zM535 352q89 -92 231 -92q172 0 263 129.5t91 339.5q0 134 -39 238z" />
<glyph unicode="&#xd9;" horiz-adv-x="1404" d="M90 516v948h363v-960q0 -240 252 -240q123 0 185 66.5t62 179.5v954h363v-948q0 -258 -154.5 -400.5t-455.5 -142.5q-305 0 -460 140.5t-155 402.5zM377 1802h383l88 -266h-254z" />
<glyph unicode="&#xda;" horiz-adv-x="1404" d="M90 516v948h363v-960q0 -240 252 -240q123 0 185 66.5t62 179.5v954h363v-948q0 -258 -154.5 -400.5t-455.5 -142.5q-305 0 -460 140.5t-155 402.5zM565 1536l88 266h383l-217 -266h-254z" />
<glyph unicode="&#xdb;" horiz-adv-x="1404" d="M90 516v948h363v-960q0 -240 252 -240q123 0 185 66.5t62 179.5v954h363v-948q0 -258 -154.5 -400.5t-455.5 -142.5q-305 0 -460 140.5t-155 402.5zM322 1536l219 256h319l219 -256h-280l-92 111h-5l-94 -111h-286z" />
<glyph unicode="&#xdc;" horiz-adv-x="1404" d="M90 516v948h363v-960q0 -240 252 -240q123 0 185 66.5t62 179.5v954h363v-948q0 -258 -154.5 -400.5t-455.5 -142.5q-305 0 -460 140.5t-155 402.5zM324 1542v262h313v-262h-313zM764 1542v262h313v-262h-313z" />
<glyph unicode="&#xdd;" horiz-adv-x="1357" d="M2 1464h395l189 -379q18 -37 65 -149l31 -74h4l31 74q24 56 69 149l187 379h383l-496 -923v-541h-362v541zM547 1536l88 266h383l-217 -266h-254z" />
<glyph unicode="&#xde;" horiz-adv-x="1331" d="M100 0v1464h369v-202h291q261 -3 399 -138q148 -136 148 -360q0 -212 -135.5 -345.5t-360.5 -133.5h-342v-285h-369zM469 571h268q97 0 151 53t54 142q0 91 -53.5 139.5t-151.5 48.5h-268v-383z" />
<glyph unicode="&#xdf;" horiz-adv-x="1179" d="M80 0v1053q0 204 137.5 322t374.5 118q219 0 349 -105t130 -280q0 -191 -180 -264v-6q124 -41 190 -139t66 -240q0 -230 -129.5 -353.5t-339.5 -123.5q-95 0 -156 20v242q143 -17 219 44t76 199q0 240 -235 240h-56v191h43q191 10 191 165q0 71 -43 114.5t-119 43.5 q-87 0 -135.5 -50.5t-48.5 -146.5v-1044h-334z" />
<glyph unicode="&#xe0;" horiz-adv-x="1107" d="M31 293q0 67 21 119.5t56.5 88t88.5 60.5t109 39t126 23q156 20 211 42t55 74q0 53 -35 83t-108 30q-155 0 -170 -135h-307q5 157 127 258.5t348 101.5q225 0 340 -86q133 -98 133 -299v-528q0 -68 7.5 -102.5t29.5 -47.5v-14h-324q-21 31 -34 117h-5q-50 -70 -124 -107 t-187 -37q-161 0 -259.5 84t-98.5 236zM209 1475h385l117 -304h-254zM352 303q0 -60 39 -88.5t105 -28.5q94 0 152.5 51.5t58.5 137.5v125q-52 -28 -172 -56q-101 -24 -142 -53.5t-41 -87.5z" />
<glyph unicode="&#xe1;" horiz-adv-x="1107" d="M31 293q0 67 21 119.5t56.5 88t88.5 60.5t109 39t126 23q156 20 211 42t55 74q0 53 -35 83t-108 30q-155 0 -170 -135h-307q5 157 127 258.5t348 101.5q225 0 340 -86q133 -98 133 -299v-528q0 -68 7.5 -102.5t29.5 -47.5v-14h-324q-21 31 -34 117h-5q-50 -70 -124 -107 t-187 -37q-161 0 -259.5 84t-98.5 236zM352 303q0 -60 39 -88.5t105 -28.5q94 0 152.5 51.5t58.5 137.5v125q-52 -28 -172 -56q-101 -24 -142 -53.5t-41 -87.5zM428 1171l117 304h385l-248 -304h-254z" />
<glyph unicode="&#xe2;" horiz-adv-x="1107" d="M31 293q0 67 21 119.5t56.5 88t88.5 60.5t109 39t126 23q156 20 211 42t55 74q0 53 -35 83t-108 30q-155 0 -170 -135h-307q5 157 127 258.5t348 101.5q225 0 340 -86q133 -98 133 -299v-528q0 -68 7.5 -102.5t29.5 -47.5v-14h-324q-21 31 -34 117h-5q-50 -70 -124 -107 t-187 -37q-161 0 -259.5 84t-98.5 236zM184 1176l219 280h320l219 -280h-280l-93 135h-4l-94 -135h-287zM352 303q0 -60 39 -88.5t105 -28.5q94 0 152.5 51.5t58.5 137.5v125q-52 -28 -172 -56q-101 -24 -142 -53.5t-41 -87.5z" />
<glyph unicode="&#xe3;" horiz-adv-x="1107" d="M31 293q0 67 21 119.5t56.5 88t88.5 60.5t109 39t126 23q156 20 211 42t55 74q0 53 -35 83t-108 30q-155 0 -170 -135h-307q5 157 127 258.5t348 101.5q225 0 340 -86q133 -98 133 -299v-528q0 -68 7.5 -102.5t29.5 -47.5v-14h-324q-21 31 -34 117h-5q-50 -70 -124 -107 t-187 -37q-161 0 -259.5 84t-98.5 236zM223 1169q0 134 59.5 205.5t151.5 71.5q69 0 135 -39l21 -10.5t19.5 -9.5t15.5 -6.5t16.5 -6t13 -3t15.5 -1.5q30 0 43 18t18 54h172q0 -124 -53.5 -197.5t-151.5 -73.5q-55 0 -135 33q-10 5 -26 12.5t-23.5 11t-18.5 8t-19.5 6 t-18.5 1.5q-53 0 -62 -74h-172zM352 303q0 -60 39 -88.5t105 -28.5q94 0 152.5 51.5t58.5 137.5v125q-52 -28 -172 -56q-101 -24 -142 -53.5t-41 -87.5z" />
<glyph unicode="&#xe4;" horiz-adv-x="1107" d="M31 293q0 67 21 119.5t56.5 88t88.5 60.5t109 39t126 23q156 20 211 42t55 74q0 53 -35 83t-108 30q-155 0 -170 -135h-307q5 157 127 258.5t348 101.5q225 0 340 -86q133 -98 133 -299v-528q0 -68 7.5 -102.5t29.5 -47.5v-14h-324q-21 31 -34 117h-5q-50 -70 -124 -107 t-187 -37q-161 0 -259.5 84t-98.5 236zM176 1182v262h313v-262h-313zM352 303q0 -60 39 -88.5t105 -28.5q94 0 152.5 51.5t58.5 137.5v125q-52 -28 -172 -56q-101 -24 -142 -53.5t-41 -87.5zM637 1182v262h313v-262h-313z" />
<glyph unicode="&#xe5;" horiz-adv-x="1107" d="M31 293q0 67 21 119.5t56.5 88t88.5 60.5t109 39t126 23q156 20 211 42t55 74q0 53 -35 83t-108 30q-155 0 -170 -135h-307q5 157 127 258.5t348 101.5q225 0 340 -86q133 -98 133 -299v-528q0 -68 7.5 -102.5t29.5 -47.5v-14h-324q-21 31 -34 117h-5q-50 -70 -124 -107 t-187 -37q-161 0 -259.5 84t-98.5 236zM352 303q0 -60 39 -88.5t105 -28.5q94 0 152.5 51.5t58.5 137.5v125q-52 -28 -172 -56q-101 -24 -142 -53.5t-41 -87.5zM354 1343q0 86 61 144.5t148 58.5t148 -58.5t61 -144.5q0 -84 -61 -142t-148 -58t-148 58t-61 142zM479 1343 q0 -36 24 -61t60 -25q38 0 62 25t24 61t-24.5 62.5t-61.5 26.5q-36 0 -60 -26.5t-24 -62.5z" />
<glyph unicode="&#xe6;" horiz-adv-x="1812" d="M31 293q0 67 21.5 119.5t56 87t89 59.5t109 39t127.5 25q164 22 218.5 42.5t54.5 73.5q0 113 -148 113q-162 0 -174 -135h-307q5 157 128.5 258.5t350.5 101.5q121 0 207.5 -24t142.5 -86q131 112 328 112q206 0 342 -114q101 -85 152 -221t49 -306h-754 q18 -109 77.5 -169t160.5 -60q125 0 174 104h323q-38 -147 -166 -239q-136 -105 -338 -105q-258 0 -403 168q-82 -88 -177.5 -127t-244.5 -39q-183 0 -291 84.5t-108 237.5zM348 303q0 -60 41 -88.5t107 -28.5q99 0 159 51.5t60 137.5v125q-53 -28 -178 -56 q-106 -24 -147.5 -53.5t-41.5 -87.5zM1026 637h414q-11 95 -63 150t-136 55q-177 0 -215 -205z" />
<glyph unicode="&#xe7;" horiz-adv-x="1114" d="M33 522q0 241 151 398t398 157q210 0 341 -109.5t156 -291.5h-321q-37 155 -172 155q-106 0 -160.5 -81.5t-54.5 -227.5q0 -144 54.5 -224.5t160.5 -80.5q161 0 182 180h319q-8 -174 -126.5 -292.5t-317.5 -135.5l-78 -65v-4q92 11 154.5 -25.5t62.5 -112.5 q0 -72 -71.5 -114.5t-184.5 -42.5q-133 0 -229 59l41 72q67 -31 141 -31q47 0 79 14.5t32 44.5q0 28 -22 42t-56 14q-29 0 -72 -15l-34 50l116 116q-222 20 -355.5 173.5t-133.5 377.5z" />
<glyph unicode="&#xe8;" horiz-adv-x="1146" d="M33 526q0 156 67.5 281.5t191 198.5t279.5 73q215 0 359 -131q92 -85 139 -216.5t45 -293.5h-754q18 -109 76.5 -169t159.5 -60q125 0 174 104h326q-36 -151 -176 -247q-135 -97 -328 -97q-169 0 -297 73t-195 198.5t-67 285.5zM219 1475h385l117 -304h-254zM362 637h414 q-11 94 -64 149.5t-134 55.5q-178 0 -216 -205z" />
<glyph unicode="&#xe9;" horiz-adv-x="1146" d="M33 526q0 156 67.5 281.5t191 198.5t279.5 73q215 0 359 -131q92 -85 139 -216.5t45 -293.5h-754q18 -109 76.5 -169t159.5 -60q125 0 174 104h326q-36 -151 -176 -247q-135 -97 -328 -97q-169 0 -297 73t-195 198.5t-67 285.5zM362 637h414q-11 94 -64 149.5t-134 55.5 q-178 0 -216 -205zM438 1171l117 304h385l-248 -304h-254z" />
<glyph unicode="&#xea;" horiz-adv-x="1146" d="M33 526q0 156 67.5 281.5t191 198.5t279.5 73q215 0 359 -131q92 -85 139 -216.5t45 -293.5h-754q18 -109 76.5 -169t159.5 -60q125 0 174 104h326q-36 -151 -176 -247q-135 -97 -328 -97q-169 0 -297 73t-195 198.5t-67 285.5zM195 1176l219 280h319l219 -280h-280 l-92 135h-5l-94 -135h-286zM362 637h414q-11 94 -64 149.5t-134 55.5q-178 0 -216 -205z" />
<glyph unicode="&#xeb;" horiz-adv-x="1146" d="M33 526q0 156 67.5 281.5t191 198.5t279.5 73q215 0 359 -131q92 -85 139 -216.5t45 -293.5h-754q18 -109 76.5 -169t159.5 -60q125 0 174 104h326q-36 -151 -176 -247q-135 -97 -328 -97q-169 0 -297 73t-195 198.5t-67 285.5zM186 1182v262h314v-262h-314zM362 637h414 q-11 94 -64 149.5t-134 55.5q-178 0 -216 -205zM647 1182v262h314v-262h-314z" />
<glyph unicode="&#xec;" horiz-adv-x="493" d="M-106 1475h385l116 -304h-254zM80 0v1049h334v-1049h-334z" />
<glyph unicode="&#xed;" horiz-adv-x="493" d="M80 0v1049h334v-1049h-334zM113 1171l116 304h385l-247 -304h-254z" />
<glyph unicode="&#xee;" horiz-adv-x="493" d="M-86 1176l166 280h336l162 -280h-265l-61 127h-4l-64 -127h-270zM80 0v1049h334v-1049h-334z" />
<glyph unicode="&#xef;" horiz-adv-x="493" d="M-59 1182v262h254v-262h-254zM80 0v1049h334v-1049h-334zM301 1182v262h252v-262h-252z" />
<glyph unicode="&#xf0;" horiz-adv-x="1185" d="M33 522q0 239 132 387t351 148q126 0 215 -86h4q-71 116 -168 215l-274 -90l-47 108l223 74q-96 84 -244 186h418q75 -49 123 -88l201 66l49 -109l-152 -49q283 -294 283 -717q0 -96 -18.5 -182t-61 -163.5t-105.5 -133t-157 -88.5t-211 -33q-168 0 -296.5 72.5 t-196.5 198.5t-68 284zM371 520q0 -146 56.5 -230.5t164.5 -84.5t165.5 84.5t57.5 230.5t-57.5 230t-165.5 84t-164.5 -84t-56.5 -230z" />
<glyph unicode="&#xf1;" horiz-adv-x="1167" d="M80 0v1049h321v-144h7q62 89 138.5 131.5t184.5 42.5q169 0 267 -109.5t98 -287.5v-682h-334v614q0 87 -42 137t-122 50q-84 0 -134 -61t-50 -160v-580h-334zM254 1169q0 134 59.5 205.5t151.5 71.5q69 0 135 -39q8 -4 21.5 -10.5t19 -9.5t15 -7t15.5 -5.5t13.5 -3 t15.5 -1.5q30 0 43.5 18t18.5 54h172q0 -124 -53.5 -197.5t-151.5 -73.5q-55 0 -135 33q-9 4 -26 12.5t-24 11.5t-18.5 7.5t-20 6t-18.5 1.5q-52 0 -61 -74h-172z" />
<glyph unicode="&#xf2;" horiz-adv-x="1185" d="M33 522q0 241 155.5 398t405.5 157t404.5 -157t154.5 -398t-154.5 -398t-404.5 -157t-405.5 157t-155.5 398zM240 1475h385l116 -304h-254zM371 522q0 -146 56.5 -231.5t164.5 -85.5t165.5 85.5t57.5 231.5t-57.5 233t-165.5 87q-107 0 -164 -86.5t-57 -233.5z" />
<glyph unicode="&#xf3;" horiz-adv-x="1185" d="M33 522q0 241 155.5 398t405.5 157t404.5 -157t154.5 -398t-154.5 -398t-404.5 -157t-405.5 157t-155.5 398zM371 522q0 -146 56.5 -231.5t164.5 -85.5t165.5 85.5t57.5 231.5t-57.5 233t-165.5 87q-107 0 -164 -86.5t-57 -233.5zM459 1171l116 304h386l-248 -304h-254z " />
<glyph unicode="&#xf4;" horiz-adv-x="1185" d="M33 522q0 241 155.5 398t405.5 157t404.5 -157t154.5 -398t-154.5 -398t-404.5 -157t-405.5 157t-155.5 398zM215 1176l219 280h320l219 -280h-281l-92 135h-4l-94 -135h-287zM371 522q0 -146 56.5 -231.5t164.5 -85.5t165.5 85.5t57.5 231.5t-57.5 233t-165.5 87 q-107 0 -164 -86.5t-57 -233.5z" />
<glyph unicode="&#xf5;" horiz-adv-x="1185" d="M33 522q0 241 155.5 398t405.5 157t404.5 -157t154.5 -398t-154.5 -398t-404.5 -157t-405.5 157t-155.5 398zM254 1169q0 134 59.5 205.5t151.5 71.5q69 0 135 -39q8 -4 21.5 -10.5t19 -9.5t15 -7t15.5 -5.5t13.5 -3t15.5 -1.5q30 0 43.5 18t18.5 54h172 q0 -124 -53.5 -197.5t-151.5 -73.5q-55 0 -135 33q-9 4 -26 12.5t-24 11.5t-18.5 7.5t-20 6t-18.5 1.5q-52 0 -61 -74h-172zM371 522q0 -146 56.5 -231.5t164.5 -85.5t165.5 85.5t57.5 231.5t-57.5 233t-165.5 87q-107 0 -164 -86.5t-57 -233.5z" />
<glyph unicode="&#xf6;" horiz-adv-x="1185" d="M33 522q0 241 155.5 398t405.5 157t404.5 -157t154.5 -398t-154.5 -398t-404.5 -157t-405.5 157t-155.5 398zM207 1182v262h313v-262h-313zM371 522q0 -146 56.5 -231.5t164.5 -85.5t165.5 85.5t57.5 231.5t-57.5 233t-165.5 87q-107 0 -164 -86.5t-57 -233.5zM668 1182 v262h313v-262h-313z" />
<glyph unicode="&#xf7;" horiz-adv-x="1159" d="M82 541v268h995v-268h-995zM403 121v305h351v-305h-351zM403 924v305h351v-305h-351z" />
<glyph unicode="&#xf8;" horiz-adv-x="1185" d="M33 522q0 241 155.5 398t405.5 157q184 0 330 -96l118 131l91 -86l-115 -127q135 -150 135 -377q0 -241 -154.5 -398t-404.5 -157q-185 0 -328 94l-121 -135l-90 88l117 129q-139 151 -139 379zM371 522q0 -76 18 -135l352 389q-60 66 -149 66q-107 0 -164 -86.5 t-57 -233.5zM449 264q53 -59 143 -59q108 0 165.5 85.5t57.5 231.5q0 65 -16 131z" />
<glyph unicode="&#xf9;" horiz-adv-x="1159" d="M72 360v689h331v-619q0 -178 158 -178q85 0 134.5 58t49.5 153v586h334v-1049h-319v129h-6q-59 -81 -133 -120.5t-181 -39.5q-179 0 -273.5 105t-94.5 286zM223 1475h385l117 -304h-254z" />
<glyph unicode="&#xfa;" horiz-adv-x="1159" d="M72 360v689h331v-619q0 -178 158 -178q85 0 134.5 58t49.5 153v586h334v-1049h-319v129h-6q-59 -81 -133 -120.5t-181 -39.5q-179 0 -273.5 105t-94.5 286zM442 1171l117 304h385l-248 -304h-254z" />
<glyph unicode="&#xfb;" horiz-adv-x="1159" d="M72 360v689h331v-619q0 -178 158 -178q85 0 134.5 58t49.5 153v586h334v-1049h-319v129h-6q-59 -81 -133 -120.5t-181 -39.5q-179 0 -273.5 105t-94.5 286zM199 1176l219 280h319l219 -280h-280l-92 135h-4l-95 -135h-286z" />
<glyph unicode="&#xfc;" horiz-adv-x="1159" d="M72 360v689h331v-619q0 -178 158 -178q85 0 134.5 58t49.5 153v586h334v-1049h-319v129h-6q-59 -81 -133 -120.5t-181 -39.5q-179 0 -273.5 105t-94.5 286zM190 1182v262h314v-262h-314zM651 1182v262h314v-262h-314z" />
<glyph unicode="&#xfd;" horiz-adv-x="1083" d="M-6 1049h352l141 -447q9 -28 24 -84.5t21 -75.5q3 -13 10.5 -40.5t10.5 -41.5h4q3 14 9 41.5t9 40.5q15 71 43 160l138 447h334l-363 -1063q-61 -184 -149.5 -258t-245.5 -74h-217v260h114q138 0 138 111q0 33 -13.5 76.5t-50.5 140.5zM412 1171l116 304h385l-247 -304 h-254z" />
<glyph unicode="&#xfe;" horiz-adv-x="1204" d="M80 -346v1812h334v-536h6q109 149 303 149q205 0 326.5 -156t121.5 -399q0 -254 -125.5 -405.5t-330.5 -151.5q-193 0 -297 142h-4v-455h-334zM403 516q0 -132 59.5 -211.5t166.5 -79.5q97 0 151 77t54 214q0 140 -53 221.5t-158 81.5q-106 0 -163 -84.5t-57 -218.5z" />
<glyph unicode="&#xff;" horiz-adv-x="1083" d="M-6 1049h352l141 -447q9 -28 24 -84.5t21 -75.5q3 -13 10.5 -40.5t10.5 -41.5h4q3 14 9 41.5t9 40.5q15 71 43 160l138 447h334l-363 -1063q-61 -184 -149.5 -258t-245.5 -74h-217v260h114q138 0 138 111q0 33 -13.5 76.5t-50.5 140.5zM160 1182v262h313v-262h-313z M621 1182v262h313v-262h-313z" />
<glyph unicode="&#x152;" horiz-adv-x="2205" d="M41 729q0 216 86.5 391t240.5 274t347 99q123 0 210 -33.5t158 -97.5v102h1039v-301h-699v-264h590v-281h-590v-301h719v-317h-1059v102q-151 -137 -352 -137t-359.5 99.5t-244.5 273.5t-86 391zM410 729q0 -136 39 -240.5t117.5 -166.5t187.5 -62q115 0 194 54t113 126 v574q-99 186 -307 186q-162 0 -253 -131.5t-91 -339.5z" />
<glyph unicode="&#x153;" horiz-adv-x="1921" d="M33 522q0 241 155.5 398t405.5 157q243 0 381 -151q140 153 368 153q217 0 361 -131q91 -85 137.5 -216.5t44.5 -293.5h-753q18 -109 77 -169t160 -60q125 0 174 104h324q-36 -150 -174 -247q-135 -97 -330 -97q-244 0 -387 152q-141 -154 -383 -154q-250 0 -405.5 157 t-155.5 398zM371 522q0 -146 56.5 -231.5t164.5 -85.5t165.5 85.5t57.5 231.5t-57.5 233t-165.5 87q-107 0 -164 -86.5t-57 -233.5zM1135 637h413q-11 95 -62.5 150t-135.5 55q-177 0 -215 -205z" />
<glyph unicode="&#x178;" horiz-adv-x="1357" d="M2 1464h395l189 -379q18 -37 65 -149l31 -74h4l31 74q24 56 69 149l187 379h383l-496 -923v-541h-362v541zM305 1542v262h313v-262h-313zM745 1542v262h314v-262h-314z" />
<glyph unicode="&#x2c6;" horiz-adv-x="1024" d="M133 1176l219 280h320l219 -280h-281l-92 135h-4l-94 -135h-287z" />
<glyph unicode="&#x2dc;" horiz-adv-x="1024" d="M172 1169q0 134 59.5 205.5t151.5 71.5q69 0 135 -39q8 -4 21.5 -10.5t19 -9.5t15 -7t15.5 -5.5t13.5 -3t15.5 -1.5q30 0 43.5 18t18.5 54h172q0 -124 -53.5 -197.5t-151.5 -73.5q-55 0 -135 33q-10 5 -26 12.5t-23.5 11t-18.5 8t-19.5 6t-18.5 1.5q-53 0 -62 -74h-172z " />
<glyph unicode="&#x2000;" horiz-adv-x="957" />
<glyph unicode="&#x2001;" horiz-adv-x="1915" />
<glyph unicode="&#x2002;" horiz-adv-x="957" />
<glyph unicode="&#x2003;" horiz-adv-x="1915" />
<glyph unicode="&#x2004;" horiz-adv-x="638" />
<glyph unicode="&#x2005;" horiz-adv-x="478" />
<glyph unicode="&#x2006;" horiz-adv-x="319" />
<glyph unicode="&#x2007;" horiz-adv-x="319" />
<glyph unicode="&#x2008;" horiz-adv-x="239" />
<glyph unicode="&#x2009;" horiz-adv-x="383" />
<glyph unicode="&#x200a;" horiz-adv-x="106" />
<glyph unicode="&#x2010;" horiz-adv-x="686" d="M66 371v286h557v-286h-557z" />
<glyph unicode="&#x2011;" horiz-adv-x="686" d="M66 371v286h557v-286h-557z" />
<glyph unicode="&#x2012;" horiz-adv-x="686" d="M66 371v286h557v-286h-557z" />
<glyph unicode="&#x2013;" horiz-adv-x="1024" d="M0 379v287h1024v-287h-1024z" />
<glyph unicode="&#x2014;" horiz-adv-x="2048" d="M205 379v287h1638v-287h-1638z" />
<glyph unicode="&#x2018;" horiz-adv-x="446" d="M70 862v268q0 150 88 238q41 42 100.5 69t122.5 33v-118q-62 -20 -103.5 -70t-41.5 -115h139v-305h-305z" />
<glyph unicode="&#x2019;" horiz-adv-x="446" d="M66 856v119q63 20 104 69.5t41 114.5h-139v305h305v-268q0 -150 -88 -238q-86 -89 -223 -102z" />
<glyph unicode="&#x201a;" horiz-adv-x="446" d="M66 -184q63 18 104 67.5t41 116.5h-139v305h305v-268q0 -149 -88 -240q-85 -85 -223 -102v121z" />
<glyph unicode="&#x201c;" horiz-adv-x="876" d="M70 862v268q0 150 88 238q41 42 100.5 69t122.5 33v-118q-62 -20 -103.5 -70t-41.5 -115h139v-305h-305zM500 862v268q0 150 88 238q41 42 100.5 69t122.5 33v-118q-62 -20 -103.5 -70t-41.5 -115h139v-305h-305z" />
<glyph unicode="&#x201d;" horiz-adv-x="876" d="M66 856v119q63 20 104 69.5t41 114.5h-139v305h305v-268q0 -150 -88 -238q-86 -89 -223 -102zM496 856v119q63 20 104 69.5t41 114.5h-139v305h305v-268q0 -150 -88 -238q-86 -89 -223 -102z" />
<glyph unicode="&#x201e;" horiz-adv-x="876" d="M66 -184q63 18 104 67.5t41 116.5h-139v305h305v-268q0 -149 -88 -240q-85 -85 -223 -102v121zM496 -184q63 18 104 67.5t41 116.5h-139v305h305v-268q0 -149 -88 -240q-85 -85 -223 -102v121z" />
<glyph unicode="&#x2022;" horiz-adv-x="765" d="M76 655q0 126 90.5 217t216.5 91t216.5 -91t90.5 -217t-90.5 -216.5t-216.5 -90.5t-216.5 90.5t-90.5 216.5z" />
<glyph unicode="&#x2026;" horiz-adv-x="1548" d="M66 0v344h350v-344h-350zM600 0v344h350v-344h-350zM1135 0v344h348v-344h-348z" />
<glyph unicode="&#x202f;" horiz-adv-x="383" />
<glyph unicode="&#x2039;" horiz-adv-x="542" d="M90 358v316l348 287v-306l-174 -139v-4l174 -139v-303z" />
<glyph unicode="&#x203a;" horiz-adv-x="542" d="M104 70v305l175 139v4l-175 139v304l349 -289v-316z" />
<glyph unicode="&#x205f;" horiz-adv-x="478" />
<glyph unicode="&#x20ac;" horiz-adv-x="1333" d="M31 502v131h96q-2 23 -2 65v52h-94v133h110q45 250 208 400.5t401 150.5q126 0 227 -38t168.5 -106t107.5 -159t50 -201h-340q-14 108 -68.5 168.5t-149.5 60.5q-102 0 -164.5 -71.5t-86.5 -204.5h315v-133h-328q-3 -10 -3 -33t1.5 -50.5t1.5 -33.5h328v-131h-313 q53 -258 258 -258q103 0 158.5 69.5t68.5 184.5h332q-12 -240 -159 -385.5t-400 -145.5q-237 0 -399 144.5t-212 390.5h-112z" />
<glyph unicode="&#x2122;" horiz-adv-x="1431" d="M63 1317v147h502v-147h-159v-416h-183v416h-160zM643 901v563h248l88 -317h4l90 317h250v-563h-168v338h-4l-104 -338h-134l-102 338h-4v-338h-164z" />
<glyph unicode="&#xe000;" horiz-adv-x="1044" d="M0 0v1044h1044v-1044h-1044z" />
<glyph unicode="&#xfb01;" horiz-adv-x="1204" d="M18 836v213h138v75q0 136 61 209q60 84 185 113.5t282 11.5v-235q-104 5 -150.5 -18.5t-46.5 -104.5v-51h197v-213h-197v-836h-331v836h-138zM791 0v1049h333v-1049h-333zM791 1194v270h333v-270h-333z" />
<glyph unicode="&#xfb02;" horiz-adv-x="1214" d="M23 836v213h135v75q0 133 61 209q59 81 185.5 112t283.5 13v-235q-104 5 -150 -18.5t-46 -104.5v-51h196v-213h-196v-836h-334v836h-135zM795 0v1464h338v-1464h-338z" />
</font>
</defs>
</svg>
